<svg width="50" height="50" viewBox="0 0 50 50" fill="none" xmlns="http://www.w3.org/2000/svg">
<g id="Frame">
<path id="Vector" d="M42.1875 3.125H7.8125C6.15545 3.12681 4.56679 3.78587 3.39508 4.95758C2.22337 6.12929 1.56431 7.71795 1.5625 9.375V40.625C1.56431 42.282 2.22337 43.8707 3.39508 45.0424C4.56679 46.2141 6.15545 46.8732 7.8125 46.875H42.1875C43.8445 46.8732 45.4332 46.2141 46.6049 45.0424C47.7766 43.8707 48.4357 42.282 48.4375 40.625V9.375C48.4357 7.71795 47.7766 6.12929 46.6049 4.95758C45.4332 3.78587 43.8445 3.12681 42.1875 3.125ZM9.375 25C9.05128 25 8.73555 24.8995 8.47144 24.7123C8.20734 24.525 8.0079 24.2604 7.90068 23.955C7.79347 23.6495 7.78377 23.3183 7.87294 23.0071C7.96211 22.6959 8.14573 22.4201 8.39844 22.2178L14.6865 17.1875L8.39844 12.1572C8.23813 12.029 8.10466 11.8704 8.00563 11.6906C7.90661 11.5108 7.84397 11.3132 7.8213 11.1092C7.79863 10.9051 7.81637 10.6986 7.8735 10.5014C7.93064 10.3043 8.02605 10.1203 8.1543 9.95996C8.28254 9.79966 8.4411 9.66618 8.62093 9.56715C8.80076 9.46813 8.99833 9.40549 9.20237 9.38282C9.4064 9.36015 9.6129 9.37789 9.81008 9.43503C10.0073 9.49216 10.1913 9.58758 10.3516 9.71582L18.1641 15.9658C18.3473 16.1122 18.4952 16.2979 18.5968 16.5092C18.6984 16.7206 18.7512 16.952 18.7512 17.1865C18.7512 17.421 18.6984 17.6525 18.5968 17.8638C18.4952 18.0751 18.3473 18.2609 18.1641 18.4072L10.3516 24.6572C10.0744 24.8791 9.73001 25 9.375 25ZM25 25H18.75C18.3356 25 17.9382 24.8354 17.6451 24.5424C17.3521 24.2493 17.1875 23.8519 17.1875 23.4375C17.1875 23.0231 17.3521 22.6257 17.6451 22.3326C17.9382 22.0396 18.3356 21.875 18.75 21.875H25C25.4144 21.875 25.8118 22.0396 26.1049 22.3326C26.3979 22.6257 26.5625 23.0231 26.5625 23.4375C26.5625 23.8519 26.3979 24.2493 26.1049 24.5424C25.8118 24.8354 25.4144 25 25 25Z" fill="black"/>
</g>
</svg>
