<svg width="50" height="54" viewBox="0 0 50 54" fill="none" xmlns="http://www.w3.org/2000/svg">
<g id="Frame" clip-path="url(#clip0_8_443)">
<g id="People">
<g id="Icon-9">
<path id="android-brain" fill-rule="evenodd" clip-rule="evenodd" d="M17.8571 24.1071C17.8571 24.5991 18.2571 25 18.75 25C19.2429 25 19.6429 24.5991 19.6429 24.1071C19.6429 23.6152 19.2429 23.2143 18.75 23.2143C18.2571 23.2143 17.8571 23.6152 17.8571 24.1071ZM19.6429 40.1786C19.6429 39.6866 19.2429 39.2857 18.75 39.2857C18.2571 39.2857 17.8571 39.6866 17.8571 40.1786C17.8571 40.6705 18.2571 41.0714 18.75 41.0714C19.2429 41.0714 19.6429 40.6705 19.6429 40.1786ZM12.5 24.1071C12.5 23.6152 12.1 23.2143 11.6071 23.2143C11.1143 23.2143 10.7143 23.6152 10.7143 24.1071C10.7143 24.5991 11.1143 25 11.6071 25C12.1 25 12.5 24.5991 12.5 24.1071ZM12.5 34.8214C12.5 34.3295 12.1 33.9286 11.6071 33.9286C11.1143 33.9286 10.7143 34.3295 10.7143 34.8214C10.7143 35.3134 11.1143 35.7143 11.6071 35.7143C12.1 35.7143 12.5 35.3134 12.5 34.8214ZM17.8571 15.1786C17.8571 15.6705 18.2571 16.0714 18.75 16.0714C19.2429 16.0714 19.6429 15.6705 19.6429 15.1786C19.6429 14.6866 19.2429 14.2857 18.75 14.2857C18.2571 14.2857 17.8571 14.6866 17.8571 15.1786ZM12.5 16.0714V21.5929C13.2571 21.8625 13.8518 22.458 14.1205 23.2143H16.2366C16.6062 22.1768 17.5875 21.4286 18.75 21.4286C20.2268 21.4286 21.4286 22.6304 21.4286 24.1071C21.4286 25.2696 20.6795 26.2509 19.6429 26.6214V37.6643C20.6795 38.0348 21.4286 39.0161 21.4286 40.1786C21.4286 41.3411 20.6795 42.3223 19.6429 42.6928V45.5357C19.6429 46.0286 19.2437 46.4286 18.75 46.4286C18.2562 46.4286 17.8571 46.0286 17.8571 45.5357V42.692C16.9455 42.3678 16.2661 41.5696 16.1134 40.5893L12.7616 37.2384C12.7589 37.2366 12.7589 37.233 12.7563 37.2303C12.4071 37.3982 12.0205 37.5 11.6071 37.5C10.1304 37.5 8.92857 36.2982 8.92857 34.8214C8.92857 33.3446 10.1304 32.1428 11.6071 32.1428C13.0839 32.1428 14.2857 33.3446 14.2857 34.8214C14.2857 35.2339 14.1839 35.6214 14.0161 35.9705C14.0187 35.9732 14.0214 35.9741 14.0241 35.9759L16.6196 38.5723C16.933 38.158 17.3598 37.842 17.8571 37.6643V26.6205C17.1 26.3518 16.5054 25.7562 16.2366 25H14.1205C13.7509 26.0375 12.7696 26.7857 11.6071 26.7857C10.1304 26.7857 8.92857 25.5839 8.92857 24.1071C8.92857 22.9446 9.67768 21.9634 10.7143 21.5929V15.1786C10.7143 14.6857 11.1134 14.2857 11.6071 14.2857H16.2366C16.5054 13.5295 17.1 12.9339 17.8571 12.6643V9.82143C17.8571 9.32857 18.2562 8.92857 18.75 8.92857C19.2437 8.92857 19.6429 9.32857 19.6429 9.82143V12.6643C20.6795 13.0348 21.4286 14.0161 21.4286 15.1786C21.4286 16.6554 20.2268 17.8571 18.75 17.8571C17.5875 17.8571 16.6062 17.1089 16.2366 16.0714H12.5ZM47.8866 33.2545C49.2161 32.0857 50 30.3946 50 28.5714C50 26.6607 49.1509 24.9053 47.692 23.7268C48.0357 23.0098 48.2143 22.2286 48.2143 21.4286C48.2143 19.5857 47.2473 17.8884 45.7214 16.9196C46.1821 16.117 46.4286 15.2116 46.4286 14.2857C46.4286 11.9821 44.9652 9.97946 42.8473 9.24018C42.8536 9.13571 42.8571 9.03214 42.8571 8.92857C42.8571 5.97411 40.4545 3.57143 37.5 3.57143C36.7795 3.57143 36.0777 3.71786 35.4223 4C34.6545 1.675 32.4464 0 29.9107 0C26.1536 0 24.483 3.38928 24.125 5.18214C24.1188 5.21161 24.1268 5.24018 24.125 5.27053C24.1223 5.30089 24.1071 5.32589 24.1071 5.35714V47.2678C23.9054 49.8027 21.7527 51.7857 19.1964 51.7857C16.6491 51.7857 14.5027 49.7955 14.3089 47.2536C14.2732 46.7884 13.8589 46.4286 13.3929 46.4286C13.1143 46.4286 12.8518 46.5589 12.6821 46.7803C11.9893 47.692 10.9464 48.2143 9.82143 48.2143C7.85179 48.2143 6.25 46.6125 6.25 44.6428C6.25 43.8321 6.53214 43.0571 7.06786 42.4009C7.30893 42.1053 7.33571 41.6884 7.13304 41.3643C6.93125 41.0402 6.54911 40.8795 6.17232 40.9678C5.87321 41.0375 5.60625 41.0714 5.35714 41.0714C3.3875 41.0714 1.78571 39.4696 1.78571 37.5C1.78571 36.0277 2.72054 34.6884 4.11071 34.167C4.44196 34.0428 4.66875 33.7357 4.68929 33.3839C4.70982 33.0312 4.52054 32.6991 4.20804 32.5375C2.71339 31.767 1.78571 30.2464 1.78571 28.5714C1.78571 26.9964 2.59554 25.5678 3.95268 24.75C4.16429 24.6223 4.31339 24.4125 4.36518 24.1705C4.41607 23.9277 4.36429 23.6759 4.22232 23.4732C3.79643 22.8652 3.57143 22.1589 3.57143 21.4286C3.57143 19.9455 4.51607 18.6036 5.92054 18.0884C6.19821 17.9866 6.40804 17.7536 6.48036 17.467C6.55179 17.1795 6.47589 16.875 6.27857 16.6545C5.68393 15.9911 5.35714 15.15 5.35714 14.2857C5.35714 12.5554 6.59732 11.0812 8.30446 10.7795C8.54375 10.7366 8.75714 10.5982 8.89196 10.3955C9.02679 10.1929 9.07321 9.94375 9.02143 9.70625C8.95893 9.42768 8.92857 9.17321 8.92857 8.92857C8.92857 6.95893 10.5304 5.35714 12.5 5.35714C13.2732 5.35714 14.0188 5.61518 14.6571 6.10357C14.917 6.30178 15.2643 6.34286 15.5616 6.21071C15.8607 6.07768 16.0625 5.79286 16.0902 5.46786C16.2598 3.40357 18.017 1.78571 20.0893 1.78571C21.0839 1.78571 21.9063 2.10536 22.6027 2.7625C22.9625 3.10089 23.5277 3.08393 23.8652 2.725C24.2036 2.36607 24.1875 1.80179 23.8286 1.46339C22.7991 0.491964 21.5411 0 20.0893 0C17.5536 0 15.3455 1.675 14.5777 4C13.9223 3.71786 13.2205 3.57143 12.5 3.57143C9.54554 3.57143 7.14286 5.97411 7.14286 8.92857C7.14286 9.03214 7.14643 9.13571 7.15268 9.24018C5.03482 9.97946 3.57143 11.9821 3.57143 14.2857C3.57143 15.2116 3.81786 16.117 4.27857 16.9196C2.75268 17.8884 1.78571 19.5857 1.78571 21.4286C1.78571 22.2286 1.96429 23.0098 2.30804 23.7268C0.849107 24.9053 0 26.6607 0 28.5714C0 30.3946 0.783929 32.0857 2.11339 33.2545C0.808929 34.2518 0 35.8178 0 37.5C0 40.2616 2.10089 42.542 4.78839 42.8268C4.57411 43.4053 4.46429 44.0161 4.46429 44.6428C4.46429 47.5973 6.86696 50 9.82143 50C10.9304 50 11.9857 49.6634 12.8714 49.0464C13.7821 51.6839 16.2991 53.5714 19.1964 53.5714C22.6857 53.5714 25.6259 50.8553 25.8902 47.3893C25.8911 47.3777 25.8857 47.3669 25.8857 47.3553C25.8866 47.3428 25.8929 47.3339 25.8929 47.3214V5.45536C26.025 4.90714 26.9062 1.78571 29.9107 1.78571C31.983 1.78571 33.7402 3.40357 33.9098 5.46786C33.9375 5.79286 34.1393 6.07768 34.4384 6.21071C34.7357 6.34286 35.083 6.30178 35.3429 6.10357C35.9812 5.61518 36.7268 5.35714 37.5 5.35714C39.4696 5.35714 41.0714 6.95893 41.0714 8.92857C41.0714 9.17321 41.0411 9.42768 40.9786 9.70625C40.9268 9.94375 40.9732 10.1929 41.108 10.3955C41.2429 10.5982 41.4563 10.7366 41.6955 10.7795C43.4027 11.0812 44.6429 12.5554 44.6429 14.2857C44.6429 15.15 44.3161 15.9911 43.7214 16.6545C43.5241 16.875 43.4482 17.1795 43.5196 17.467C43.592 17.7536 43.8018 17.9866 44.0795 18.0884C45.4839 18.6036 46.4286 19.9455 46.4286 21.4286C46.4286 22.1589 46.2036 22.8652 45.7777 23.4732C45.6357 23.6759 45.5839 23.9277 45.6348 24.1705C45.6866 24.4125 45.8357 24.6223 46.0473 24.75C47.4045 25.5678 48.2143 26.9964 48.2143 28.5714C48.2143 30.2464 47.2866 31.767 45.792 32.5375C45.4795 32.6991 45.2902 33.0312 45.3107 33.3839C45.3313 33.7357 45.558 34.0428 45.8893 34.167C47.2795 34.6884 48.2143 36.0277 48.2143 37.5C48.2143 39.4696 46.6125 41.0714 44.6429 41.0714C44.3937 41.0714 44.1268 41.0375 43.8277 40.9678C43.4527 40.8795 43.0696 41.0402 42.867 41.3643C42.6643 41.6884 42.6911 42.1053 42.9321 42.4009C43.4679 43.0571 43.75 43.8321 43.75 44.6428C43.75 46.6125 42.1482 48.2143 40.1786 48.2143C39.05 48.2143 38.0089 47.6857 37.3232 46.7634C37.0929 46.4553 36.692 46.3295 36.3268 46.4491C36.1946 46.4928 36.0786 46.5652 35.9848 46.6571C35.8188 46.8053 35.7089 47.0161 35.6911 47.2536C35.4973 49.7955 33.3509 51.7857 30.8036 51.7857C29.6812 51.7857 28.6223 51.4169 27.7411 50.7196C27.3527 50.4134 26.7929 50.4795 26.4866 50.8652C26.1804 51.2518 26.2464 51.8134 26.6321 52.1196C27.8152 53.0553 29.2973 53.5714 30.8036 53.5714C33.7027 53.5714 36.2214 51.6803 37.1304 49.0402C38.0134 49.6616 39.067 50 40.1786 50C43.133 50 45.5357 47.5973 45.5357 44.6428C45.5357 44.0161 45.4259 43.4053 45.2116 42.8268C47.8991 42.542 50 40.2616 50 37.5C50 35.8178 49.1911 34.2518 47.8866 33.2545ZM32.1429 40.1786C32.1429 40.6714 32.542 41.0714 33.0357 41.0714C34.3375 41.0714 35.7143 42.4482 35.7143 43.75C35.7143 44.2428 36.1134 44.6428 36.6071 44.6428C37.1009 44.6428 37.5 44.2428 37.5 43.75C37.5 41.4553 35.3304 39.2857 33.0357 39.2857C32.542 39.2857 32.1429 39.6857 32.1429 40.1786ZM40.1786 16.0714C38.8768 16.0714 37.5 14.6946 37.5 13.3929C37.5 12.9 37.1009 12.5 36.6071 12.5C36.1134 12.5 35.7143 12.9 35.7143 13.3929C35.7143 15.6875 37.8839 17.8571 40.1786 17.8571C40.6723 17.8571 41.0714 17.4571 41.0714 16.9643C41.0714 16.4714 40.6723 16.0714 40.1786 16.0714ZM29.4643 35.7143C29.958 35.7143 30.3571 35.3143 30.3571 34.8214C30.3571 33.5196 31.7339 32.1428 33.0357 32.1428C33.5295 32.1428 33.9286 31.7428 33.9286 31.25C33.9286 30.7571 33.5295 30.3571 33.0357 30.3571C30.7411 30.3571 28.5714 32.5268 28.5714 34.8214C28.5714 35.3143 28.9705 35.7143 29.4643 35.7143ZM33.0357 25C33.5295 25 33.9286 24.6 33.9286 24.1071C33.9286 23.6143 33.5295 23.2143 33.0357 23.2143C31.7339 23.2143 30.3571 21.8375 30.3571 20.5357C30.3571 20.0429 29.958 19.6429 29.4643 19.6429C28.9705 19.6429 28.5714 20.0429 28.5714 20.5357C28.5714 22.8304 30.7411 25 33.0357 25ZM41.9643 21.4286C41.4705 21.4286 41.0714 21.8286 41.0714 22.3214C41.0714 23.6232 39.6946 25 38.3929 25C37.8991 25 37.5 25.4 37.5 25.8928C37.5 26.3857 37.8991 26.7857 38.3929 26.7857C40.6875 26.7857 42.8571 24.6161 42.8571 22.3214C42.8571 21.8286 42.458 21.4286 41.9643 21.4286ZM38.3929 32.1428C37.8991 32.1428 37.5 32.5428 37.5 33.0357C37.5 33.5286 37.8991 33.9286 38.3929 33.9286C39.6946 33.9286 41.0714 35.3053 41.0714 36.6071C41.0714 37.1 41.4705 37.5 41.9643 37.5C42.458 37.5 42.8571 37.1 42.8571 36.6071C42.8571 34.3125 40.6875 32.1428 38.3929 32.1428ZM28.5714 12.5C28.5714 10.2054 30.7411 8.03571 33.0357 8.03571C33.5295 8.03571 33.9286 8.43571 33.9286 8.92857C33.9286 9.42143 33.5295 9.82143 33.0357 9.82143C31.7339 9.82143 30.3571 11.1982 30.3571 12.5C30.3571 12.9929 29.958 13.3929 29.4643 13.3929C28.9705 13.3929 28.5714 12.9929 28.5714 12.5Z" fill="black"/>
</g>
</g>
</g>
<defs>
<clipPath id="clip0_8_443">
<rect width="50" height="53.5714" fill="white"/>
</clipPath>
</defs>
</svg>
