<svg width="50" height="50" viewBox="0 0 50 50" fill="none" xmlns="http://www.w3.org/2000/svg">
<g id="Layer_1">
<g id="Group">
<path id="XMLID_1489_" d="M28.125 6.25H22.9167V11.4583H28.125V6.25Z" fill="#0175BC"/>
<path id="Vector" opacity="0.1" d="M28.125 10.9375H22.9167V11.4583H28.125V10.9375Z" fill="#010101"/>
<path id="Vector_2" opacity="0.2" d="M28.125 6.25H22.9167V6.77083H28.125V6.25Z" fill="white"/>
<path id="XMLID_1314_" d="M28.125 12.5H22.9167V17.7083H28.125V12.5Z" fill="#0175BC"/>
<path id="Vector_3" opacity="0.1" d="M28.125 17.1875H22.9167V17.7083H28.125V17.1875Z" fill="#010101"/>
<path id="Vector_4" opacity="0.2" d="M28.125 12.5H22.9167V13.0208H28.125V12.5Z" fill="white"/>
<path id="XMLID_1315_" d="M28.125 18.75H22.9167V23.9583H28.125V18.75Z" fill="#0175BC"/>
<path id="Vector_5" opacity="0.1" d="M28.125 23.4375H22.9167V23.9583H28.125V23.4375Z" fill="#010101"/>
<path id="Vector_6" opacity="0.2" d="M28.125 18.75H22.9167V19.2708H28.125V18.75Z" fill="white"/>
<path id="XMLID_1307_" d="M21.875 12.5H16.6667V17.7083H21.875V12.5Z" fill="#0175BC"/>
<path id="Vector_7" opacity="0.1" d="M21.875 17.1875H16.6667V17.7083H21.875V17.1875Z" fill="#010101"/>
<path id="Vector_8" opacity="0.2" d="M21.875 12.5H16.6667V13.0208H21.875V12.5Z" fill="white"/>
<path id="XMLID_1306_" d="M21.875 18.75H16.6667V23.9583H21.875V18.75Z" fill="#0175BC"/>
<path id="Vector_9" opacity="0.1" d="M21.875 23.4375H16.6667V23.9583H21.875V23.4375Z" fill="#010101"/>
<path id="Vector_10" opacity="0.2" d="M21.875 18.75H16.6667V19.2708H21.875V18.75Z" fill="white"/>
<path id="XMLID_1317_" d="M15.625 12.5H10.4167V17.7083H15.625V12.5Z" fill="#0175BC"/>
<path id="Vector_11" opacity="0.1" d="M15.625 17.1875H10.4167V17.7083H15.625V17.1875Z" fill="#010101"/>
<path id="Vector_12" opacity="0.2" d="M15.625 12.5H10.4167V13.0208H15.625V12.5Z" fill="white"/>
<path id="XMLID_1316_" d="M15.625 18.75H10.4167V23.9583H15.625V18.75Z" fill="#0175BC"/>
<path id="Vector_13" opacity="0.1" d="M15.625 23.4375H10.4167V23.9583H15.625V23.4375Z" fill="#010101"/>
<path id="Vector_14" opacity="0.2" d="M15.625 18.75H10.4167V19.2708H15.625V18.75Z" fill="white"/>
<path id="XMLID_1318_" d="M9.37499 18.75H4.16666V23.9583H9.37499V18.75Z" fill="#0175BC"/>
<path id="Vector_15" opacity="0.1" d="M9.37499 23.4375H4.16666V23.9583H9.37499V23.4375Z" fill="#010101"/>
<path id="Vector_16" opacity="0.2" d="M9.37499 18.75H4.16666V19.2708H9.37499V18.75Z" fill="white"/>
<path id="XMLID_1305_" d="M34.375 18.75H29.1667V23.9583H34.375V18.75Z" fill="#0175BC"/>
<path id="Vector_17" opacity="0.1" d="M34.375 23.4375H29.1667V23.9583H34.375V23.4375Z" fill="#010101"/>
<path id="Vector_18" opacity="0.2" d="M34.375 18.75H29.1667V19.2708H34.375V18.75Z" fill="white"/>
<path id="Vector_19" d="M49.1557 23.3816C49.0112 23.288 46.0347 21.4081 43.221 21.8557C42.5395 19.0033 39.9231 17.2272 39.7949 17.1417L39.0706 16.6595C39.0706 16.6595 38.6174 17.1294 38.4664 17.2862C38.4112 17.3434 38.2691 17.507 38.0997 17.8026C37.6312 18.6198 36.9541 20.4459 37.3291 23.8241C37.3657 24.1415 37.2701 24.4548 37.0666 24.6806C36.8835 24.8861 36.6292 25 36.3505 25H0V26.0417C0 42.0248 11.6557 43.75 16.6667 43.75C29.5695 43.75 38.5376 35.9131 42.452 29.006C47.6095 28.184 49.3958 24.9441 49.4893 24.7894L50 23.9248L49.1557 23.3816Z" fill="#0175BC"/>
<path id="Vector_20" opacity="0.2" d="M36.3505 25H0V25.5209H36.3505C36.6292 25.5209 36.8835 25.4069 37.0666 25.2014C37.2701 24.9756 37.3657 24.6623 37.3291 24.3449C37.3171 24.2375 37.3191 24.1516 37.3093 24.0472C37.2898 24.2829 37.221 24.5092 37.0666 24.6806C36.8835 24.8861 36.6292 25 36.3505 25Z" fill="white"/>
<path id="Vector_21" opacity="0.2" d="M49.1557 23.3816C49.0112 23.288 46.0348 21.4081 43.221 21.8557C42.5395 19.0033 39.9231 17.2272 39.7949 17.1417L39.0707 16.6595C39.0707 16.6595 38.6174 17.1294 38.4664 17.2862C38.425 17.3291 38.335 17.4326 38.2215 17.607C37.8294 18.2094 37.1565 19.6587 37.2335 22.3907C37.2574 19.2605 38.2918 17.9885 38.4664 17.807L39.0707 17.1804L39.7949 17.6626C39.9231 17.748 42.5395 19.5241 43.221 22.3765C46.0348 21.9289 50 23.9248 50 23.9248L49.1557 23.3816Z" fill="white"/>
<path id="Vector_22" opacity="0.1" d="M49.4893 24.2686C49.3958 24.4232 47.6095 27.6631 42.452 28.4851C38.5376 35.3922 29.5695 43.2291 16.6667 43.2291C11.6557 43.2291 0 41.5039 0 25.5208V26.0416C0 42.0247 11.6557 43.75 16.6667 43.75C29.5695 43.75 38.5376 35.9131 42.452 29.0059C47.6095 28.184 49.3958 24.944 49.4893 24.7894L50 23.9247L49.7771 23.7813L49.4893 24.2686Z" fill="#010101"/>
<path id="Vector_23" d="M28.125 12.5H22.9167V17.7083H28.125V12.5ZM28.125 18.75H22.9167V23.9583H28.125V18.75ZM34.375 18.75H29.1667V23.9583H34.375V18.75ZM28.125 6.25H22.9167V11.4583H28.125V6.25ZM21.875 12.5H16.6667V17.7083H21.875V12.5ZM9.375 18.75H4.16667V23.9583H9.375V18.75ZM49.1557 23.3816C49.0112 23.288 46.0347 21.4081 43.221 21.8557C42.5395 19.0033 39.9231 17.2272 39.7949 17.1417L39.0706 16.6595C39.0706 16.6595 38.6173 17.1294 38.4664 17.2862C38.4112 17.3434 38.2692 17.5069 38.0997 17.8026C37.6312 18.6197 36.9541 20.4459 37.3291 23.8241C37.3657 24.1414 37.2701 24.4548 37.0666 24.6806C36.8835 24.8861 36.6292 25 36.3505 25H0V26.0417C0 42.0247 11.6557 43.75 16.6667 43.75C29.5695 43.75 38.5376 35.9131 42.452 29.0059C47.6095 28.184 49.3958 24.9441 49.4893 24.7894L50 23.9248L49.1557 23.3816ZM21.875 18.75H16.6667V23.9583H21.875V18.75ZM15.625 12.5H10.4167V17.7083H15.625V12.5ZM15.625 18.75H10.4167V23.9583H15.625V18.75Z" fill="url(#paint0_linear_19_22)"/>
</g>
</g>
<defs>
<linearGradient id="paint0_linear_19_22" x1="3.59492" y1="17.2907" x2="44.2528" y2="36.2497" gradientUnits="userSpaceOnUse">
<stop stop-color="white" stop-opacity="0.2"/>
<stop offset="1" stop-color="white" stop-opacity="0"/>
</linearGradient>
</defs>
</svg>
