<svg width="51" height="49" viewBox="0 0 51 49" fill="none" xmlns="http://www.w3.org/2000/svg">
<g id="Group">
<path id="Vector" fill-rule="evenodd" clip-rule="evenodd" d="M25.8333 0C12.028 0 0.833252 11.1924 0.833252 24.9999C0.833252 36.0455 7.99659 45.4166 17.9298 48.7224C19.1791 48.9537 19.638 48.1798 19.638 47.5197C19.638 46.9239 19.615 44.9541 19.6041 42.8651C12.6491 44.3776 11.1815 39.9154 11.1815 39.9154C10.0442 37.0259 8.40579 36.2574 8.40579 36.2574C6.13731 34.7057 8.57678 34.7377 8.57678 34.7377C11.0869 34.914 12.409 37.3144 12.409 37.3144C14.6387 41.1361 18.2574 40.031 19.6842 39.3923C19.9086 37.7767 20.5562 36.6735 21.2714 36.0492C15.7185 35.4173 9.881 33.2734 9.881 23.6941C9.881 20.9649 10.8577 18.7346 12.4571 16.9838C12.1976 16.3539 11.3417 13.8113 12.6993 10.3676C12.6993 10.3676 14.7988 9.69606 19.5758 12.9305C21.5701 12.3765 23.7089 12.0987 25.8334 12.0891C27.9579 12.0987 30.0982 12.3765 32.0961 12.9305C36.8679 9.69606 38.9643 10.3676 38.9643 10.3676C40.3251 13.8113 39.4692 16.3539 39.2097 16.9838C40.8127 18.7346 41.7825 20.9648 41.7825 23.6941C41.7825 33.2964 35.9341 35.4103 30.367 36.0294C31.2636 36.8053 32.0625 38.3266 32.0625 40.659C32.0625 44.004 32.0339 46.6962 32.0339 47.5197C32.0339 48.1851 32.4837 48.9647 33.7508 48.7193C43.679 45.4098 50.8333 36.042 50.8333 24.9999C50.8333 11.1924 39.6401 0 25.8333 0Z" fill="white"/>
<path id="Vector_2" d="M10.3021 35.8943C10.2471 36.0189 10.0515 36.056 9.87356 35.9708C9.69207 35.8892 9.5906 35.7197 9.64917 35.5952C9.70297 35.4673 9.89856 35.4318 10.0797 35.5171C10.2613 35.5989 10.3649 35.7698 10.3021 35.8943Z" fill="white"/>
<path id="Vector_3" d="M11.3147 37.024C11.1955 37.1342 10.9621 37.083 10.804 36.9084C10.6403 36.734 10.61 36.5007 10.731 36.3888C10.8539 36.2784 11.08 36.3301 11.2436 36.5044C11.4074 36.6808 11.4393 36.912 11.3147 37.024Z" fill="white"/>
<path id="Vector_4" d="M12.3005 38.4637C12.1472 38.5704 11.8966 38.4704 11.7417 38.2481C11.5884 38.0257 11.5885 37.759 11.7453 37.6521C11.9002 37.5454 12.1473 37.6415 12.3041 37.862C12.457 38.0881 12.4569 38.355 12.3005 38.4637Z" fill="white"/>
<path id="Vector_5" d="M13.6508 39.8548C13.5136 40.006 13.2217 39.9651 13.0083 39.7589C12.7896 39.5575 12.7289 39.2714 12.8659 39.1202C13.0051 38.969 13.2986 39.0113 13.5136 39.216C13.7307 39.4173 13.7966 39.7051 13.6508 39.8548Z" fill="white"/>
<path id="Vector_6" d="M15.5137 40.6625C15.4531 40.8581 15.1722 40.9471 14.8891 40.8639C14.6061 40.7781 14.4214 40.5489 14.4783 40.3511C14.5369 40.1539 14.8194 40.0614 15.1044 40.1503C15.3871 40.2356 15.5722 40.4632 15.5137 40.6625Z" fill="white"/>
<path id="Vector_7" d="M17.5597 40.8121C17.5665 41.0183 17.3264 41.1893 17.0293 41.193C16.7305 41.1998 16.4883 41.033 16.4851 40.83C16.4851 40.6217 16.7198 40.4526 17.0188 40.4475C17.3159 40.4418 17.5597 40.6075 17.5597 40.8121Z" fill="white"/>
<path id="Vector_8" d="M19.4638 40.4883C19.4993 40.6892 19.2926 40.8958 18.9974 40.9508C18.7072 41.0042 18.4389 40.8797 18.4017 40.6803C18.3658 40.4742 18.5759 40.2676 18.8659 40.2142C19.1614 40.1628 19.4262 40.2836 19.4638 40.4883Z" fill="white"/>
</g>
</svg>
