<svg width="50" height="43" viewBox="0 0 50 43" fill="none" xmlns="http://www.w3.org/2000/svg">
<g id="Frame">
<g id="_x31_81-java">
<g id="Group">
<path id="Vector" d="M32.5472 25.793C33.4072 25.2874 34.6002 24.8499 34.6002 24.8499C34.6002 24.8499 31.2049 25.3781 27.8271 25.6196C23.6947 25.9138 19.2553 25.9741 17.0268 25.7176C11.7537 25.114 19.922 23.4463 19.922 23.4463C19.922 23.4463 16.7547 23.2654 12.8504 24.8799C8.24434 26.7965 24.2562 27.6717 32.5472 25.793Z" fill="#5382A1"/>
<path id="Vector_2" d="M25.0547 23.3709C23.3877 20.1491 17.7638 17.3195 25.0547 12.3698C34.153 6.1978 29.4854 2.18359 29.4854 2.18359C31.3717 8.55944 22.8525 10.4911 19.7729 14.4524C17.6759 17.1611 20.7994 20.0661 25.0547 23.3709Z" fill="#F8981D"/>
<path id="Vector_3" d="M35.1092 10.076C35.118 10.076 19.7378 13.3809 27.0813 20.6546C29.2484 22.7975 26.511 24.7291 26.511 24.7291C26.511 24.7291 32.0122 22.2845 29.4853 19.2286C27.1252 16.3764 25.3178 14.9579 35.1092 10.076Z" fill="#F8981D"/>
<path id="Vector_4" d="M34.5741 30.4862C34.5303 30.5768 34.3987 30.6749 34.3987 30.6824C45.6551 28.1396 41.514 21.7109 36.1357 23.3408C35.6618 23.4842 35.4164 23.8162 35.4164 23.8162C35.4164 23.8162 35.7146 23.7105 36.3816 23.5898C39.1012 23.0994 43.0056 26.7211 34.5741 30.4862Z" fill="#5382A1"/>
<path id="Vector_5" d="M38.7151 35.187C38.7151 35.187 39.9873 36.085 37.3201 36.7867C32.2402 38.1071 16.1933 38.5069 11.7362 36.8396C10.1307 36.2434 13.1399 35.4058 14.0876 35.2324C15.0701 35.0512 15.6404 35.0813 15.6404 35.0813C13.8594 34.0023 4.12061 37.2016 10.6921 38.1147C28.6079 40.6196 43.3653 36.9903 38.7151 35.187Z" fill="#5382A1"/>
<path id="Vector_6" d="M19.0974 32.0632C12.1925 33.7233 23.3 37.1489 32.091 33.9118C30.6523 33.4291 29.617 32.8707 29.617 32.8707C25.6951 33.512 23.8791 33.5572 20.3169 33.2102C17.3777 32.9235 19.0974 32.0632 19.0974 32.0632Z" fill="#5382A1"/>
<path id="Vector_7" d="M34.8723 39.3973C27.9675 40.514 19.4483 40.3859 14.4033 39.6688C14.4033 39.6615 15.4387 40.4009 20.7555 40.6951C28.8447 41.1404 41.2683 40.446 41.5578 37.1564C41.5578 37.1564 40.9964 38.4014 34.8723 39.3973Z" fill="#5382A1"/>
<path id="Vector_8" d="M31.0471 28.8187C25.8529 29.679 22.8436 29.6563 19.0447 29.3167C16.1055 29.0526 18.0269 27.8304 18.0269 27.8304C10.4115 30.0034 22.2559 32.4633 32.8981 29.7846C31.7665 29.445 31.0471 28.8187 31.0471 28.8187Z" fill="#5382A1"/>
</g>
</g>
</g>
</svg>
