<svg width="51" height="50" viewBox="0 0 51 50" fill="none" xmlns="http://www.w3.org/2000/svg">
<g id="Frame">
<path id="Vector" d="M3.625 3.125V46.875H47.375V3.125H3.625ZM27.0625 37.1094C27.0625 41.3682 24.5469 43.4443 20.9053 43.4443C17.6162 43.4443 15.707 41.7412 14.7383 39.6855L18.0859 37.6592C18.7314 38.8047 19.2217 39.7734 20.6309 39.7734C21.8027 39.7734 22.7656 39.2451 22.7656 37.1895V23.4375H27.0625V37.1094ZM36.7646 43.3467C32.9473 43.3467 30.4805 41.624 29.2764 39.2451L32.6289 37.3047C33.5078 38.7441 34.6553 39.7031 36.6816 39.7031C38.3848 39.7031 39.374 38.9492 39.374 37.7744C39.374 36.3652 38.3555 35.8662 36.4756 35.04L35.4482 34.5986C32.4814 33.3369 30.5146 31.751 30.5146 28.4023C30.5146 25.3193 32.8633 23.0674 36.5342 23.0674C39.1484 23.0674 41.0264 23.8799 42.3789 26.2588L39.1719 28.3203C38.4668 27.0576 37.707 26.5625 36.5293 26.5625C35.3252 26.5625 34.5615 27.3262 34.5615 28.3203C34.5615 29.5537 35.3252 30.0527 37.0869 30.8164L38.1143 31.2568C41.6094 32.7549 43.5771 34.2842 43.5771 37.7178C43.5781 41.4189 40.6709 43.3467 36.7646 43.3467Z" fill="black"/>
</g>
</svg>
