<svg width="51" height="50" viewBox="0 0 51 50" fill="none" xmlns="http://www.w3.org/2000/svg">
<path id="Vector" fill-rule="evenodd" clip-rule="evenodd" d="M25.8333 0C39.6311 0 50.8333 11.2021 50.8333 25C50.8333 38.7979 39.6311 50 25.8333 50C12.0354 50 0.833252 38.7979 0.833252 25C0.833252 11.2021 12.0354 0 25.8333 0ZM18.0171 39.0499V19.5264H11.5265V39.0499H18.0171ZM41.4175 39.0499V27.854C41.4175 21.857 38.2157 19.0673 33.9459 19.0673C30.5031 19.0673 28.9609 20.9607 28.0974 22.2906V19.5264H21.6084C21.6945 21.3581 21.6084 39.0499 21.6084 39.0499H28.0973V28.1466C28.0973 27.563 28.1393 26.9796 28.3113 26.5625C28.7795 25.397 29.8481 24.1896 31.6409 24.1896C33.9879 24.1896 34.9283 25.9806 34.9283 28.604V39.0499H41.4175ZM14.8157 10.1123C12.595 10.1123 11.1441 11.5723 11.1441 13.4858C11.1441 15.3591 12.5508 16.8593 14.7297 16.8593H14.7716C17.0348 16.8593 18.4435 15.3591 18.4435 13.4858C18.4015 11.5723 17.0349 10.1123 14.8157 10.1123Z" fill="black"/>
</svg>
