<svg width="50" height="50" viewBox="0 0 50 50" fill="none" xmlns="http://www.w3.org/2000/svg">
<g id="Layer_1">
<path id="Vector" d="M46.3808 37.9783C46.4042 37.9061 46.4202 37.8298 46.4202 37.7496V11.2793C46.4202 11.1986 46.4042 11.1219 46.3803 11.0491C46.3768 11.0391 46.3748 11.0292 46.3709 11.0192C46.339 10.934 46.2921 10.8573 46.2333 10.79C46.2294 10.7855 46.2289 10.7801 46.2249 10.7756C46.2224 10.7731 46.2194 10.7721 46.2169 10.7696C46.1541 10.7028 46.0799 10.649 45.9967 10.6087C45.9902 10.6057 45.9852 10.6017 45.9787 10.5987C45.9 10.5633 45.8143 10.5434 45.7241 10.5374C45.7152 10.5369 45.7067 10.5349 45.6977 10.5349C45.6893 10.5344 45.6818 10.5324 45.6733 10.5324H4.21758C4.20911 10.5324 4.20114 10.5344 4.19267 10.5349C4.1847 10.5354 4.17672 10.5369 4.16875 10.5374C4.07757 10.5434 3.99038 10.5638 3.91067 10.5997C3.90568 10.6017 3.9017 10.6052 3.89671 10.6072C3.81201 10.6475 3.73678 10.7023 3.67351 10.7701C3.67101 10.7726 3.66802 10.7731 3.66553 10.7756C3.66155 10.7796 3.66105 10.785 3.65706 10.7895C3.59827 10.8568 3.55094 10.934 3.51905 11.0192C3.51507 11.0292 3.51307 11.0391 3.50959 11.0496C3.48567 11.1223 3.46973 11.1991 3.46973 11.2798V37.7506C3.46973 37.8323 3.48617 37.9101 3.51058 37.9838C3.51407 37.9938 3.51606 38.0032 3.51955 38.0132C3.55194 38.0989 3.59977 38.1761 3.65906 38.2434C3.66254 38.2474 3.66354 38.2524 3.66703 38.2563C3.67002 38.2598 3.674 38.2618 3.67749 38.2653C3.7019 38.2907 3.72881 38.3131 3.75671 38.3351C3.76917 38.3445 3.78013 38.356 3.79308 38.365C3.82597 38.3879 3.86134 38.4063 3.89771 38.4232C3.90668 38.4272 3.91465 38.4337 3.92362 38.4372C4.0138 38.4756 4.11295 38.4975 4.21708 38.4975H45.6723C45.7765 38.4975 45.8756 38.4761 45.9658 38.4372C45.9797 38.4312 45.9927 38.4223 46.0061 38.4153C46.037 38.3998 46.0679 38.3839 46.0963 38.3645C46.1113 38.354 46.1247 38.3405 46.1392 38.3291C46.1646 38.3087 46.1895 38.2882 46.2114 38.2648C46.2154 38.2608 46.2199 38.2578 46.2239 38.2538C46.2279 38.2494 46.2289 38.2434 46.2328 38.2389C46.2911 38.1721 46.338 38.0954 46.3699 38.0107C46.3748 37.9997 46.3773 37.9893 46.3808 37.9783ZM4.96493 12.9743L17.5439 24.4644L4.96493 36.0461V12.9743ZM30.7467 23.9014C30.6948 23.9352 30.64 23.9636 30.5967 24.0115C30.5803 24.0294 30.5748 24.0528 30.5603 24.0718L24.9452 29.2007L6.14376 12.0267H43.7466L30.7467 23.9014ZM18.652 25.4763L24.441 30.7642C24.584 30.8948 24.7643 30.96 24.9452 30.96C25.1261 30.96 25.3064 30.8948 25.4489 30.7642L31.1662 25.5421L43.7432 37.0028H6.1328L18.652 25.4763ZM32.2748 24.5297L44.9255 12.9743V36.0581L32.2748 24.5297Z" fill="black"/>
</g>
</svg>
