<svg width="50" height="50" viewBox="0 0 50 50" fill="none" xmlns="http://www.w3.org/2000/svg">
<g id="icon" clip-path="url(#clip0_8_437)">
<path id="Vector" d="M25 39.0625C23.1952 39.064 21.4182 38.6183 19.8277 37.7652C18.2373 36.9122 16.883 35.6783 15.8859 34.1739L18.4891 32.4436C19.2018 33.5179 20.1694 34.3992 21.3054 35.0088C22.4415 35.6184 23.7107 35.9375 25 35.9375C26.2893 35.9375 27.5585 35.6184 28.6946 35.0088C29.8306 34.3992 30.7982 33.5179 31.5109 32.4436L34.1141 34.1739C33.117 35.6783 31.7627 36.9122 30.1723 37.7652C28.5818 38.6183 26.8048 39.064 25 39.0625Z" fill="black"/>
<path id="Vector_2" d="M31.25 21.875C30.6319 21.875 30.0277 22.0582 29.5138 22.4016C28.9999 22.745 28.5994 23.2331 28.3629 23.8041C28.1264 24.3751 28.0645 25.0034 28.185 25.6096C28.3056 26.2158 28.6033 26.7726 29.0403 27.2097C29.4773 27.6467 30.0342 27.9443 30.6403 28.0649C31.2465 28.1855 31.8749 28.1236 32.4459 27.8871C33.0169 27.6506 33.505 27.25 33.8483 26.7361C34.1917 26.2222 34.375 25.618 34.375 25C34.3791 24.5885 34.301 24.1803 34.1454 23.7993C33.9898 23.4183 33.7597 23.0722 33.4687 22.7812C33.1777 22.4902 32.8316 22.2602 32.4507 22.1046C32.0697 21.949 31.6615 21.8709 31.25 21.875Z" fill="black"/>
<path id="Vector_3" d="M18.75 21.875C18.1319 21.875 17.5277 22.0582 17.0138 22.4016C16.4999 22.745 16.0994 23.2331 15.8629 23.8041C15.6264 24.3751 15.5645 25.0034 15.685 25.6096C15.8056 26.2158 16.1033 26.7726 16.5403 27.2097C16.9773 27.6467 17.5342 27.9443 18.1403 28.0649C18.7465 28.1855 19.3749 28.1236 19.9459 27.8871C20.5169 27.6506 21.005 27.25 21.3483 26.7361C21.6917 26.2222 21.875 25.618 21.875 25C21.8791 24.5885 21.801 24.1803 21.6454 23.7993C21.4898 23.4183 21.2597 23.0722 20.9687 22.7812C20.6777 22.4902 20.3316 22.2602 19.9507 22.1046C19.5697 21.949 19.1615 21.8709 18.75 21.875Z" fill="black"/>
<path id="Vector_4" d="M46.875 25V21.875H43.75V15.625C43.7481 13.968 43.0891 12.3793 41.9174 11.2076C40.7457 10.0359 39.157 9.37686 37.5 9.375H34.375V3.125H31.25V9.375H18.75V3.125H15.625V9.375H12.5C10.843 9.37686 9.25434 10.0359 8.08264 11.2076C6.91094 12.3793 6.25186 13.968 6.25 15.625V21.875H3.125V25H6.25V32.8125H3.125V35.9375H6.25V40.625C6.25186 42.282 6.91094 43.8707 8.08264 45.0424C9.25434 46.2141 10.843 46.8731 12.5 46.875H37.5C39.157 46.8731 40.7457 46.2141 41.9174 45.0424C43.0891 43.8707 43.7481 42.282 43.75 40.625V35.9375H46.875V32.8125H43.75V25H46.875ZM40.625 40.625C40.624 41.4535 40.2945 42.2478 39.7087 42.8337C39.1228 43.4195 38.3285 43.749 37.5 43.75H12.5C11.6715 43.749 10.8772 43.4195 10.2913 42.8337C9.7055 42.2478 9.37595 41.4535 9.375 40.625V15.625C9.37595 14.7965 9.7055 14.0022 10.2913 13.4163C10.8772 12.8305 11.6715 12.501 12.5 12.5H37.5C38.3285 12.501 39.1228 12.8305 39.7087 13.4163C40.2945 14.0022 40.624 14.7965 40.625 15.625V40.625Z" fill="black"/>
</g>
<defs>
<clipPath id="clip0_8_437">
<rect width="50" height="50" fill="white"/>
</clipPath>
</defs>
</svg>
