<svg width="50" height="50" viewBox="0 0 50 50" fill="none" xmlns="http://www.w3.org/2000/svg">
<g id="Frame">
<g id="_x32_67-python">
<g id="Group">
<path id="Vector" d="M18.9458 23.4621H29.205C32.0581 23.4621 34.3348 21.1085 34.3348 18.2459V8.45734C34.3348 5.67169 31.9908 3.58712 29.205 3.11642C25.7661 2.54962 22.0294 2.57843 18.9458 3.12589C14.6038 3.89445 13.8162 5.49874 13.8162 8.46701V10.562H24.085V13.683H9.96416C6.97676 13.683 4.36367 15.4793 3.54727 18.8896C2.60586 22.7992 2.56748 25.2392 3.54727 29.3218C4.27734 32.3574 6.01602 34.5282 9.00352 34.5282H12.529V29.8406C12.5289 26.4497 15.4588 23.4621 18.9458 23.4621Z" fill="#347AB4"/>
<path id="Vector_2" d="M46.3843 20.4465C45.6445 17.4782 44.2422 15.2399 41.2547 15.2399H37.4028V19.7932C37.4028 23.3283 34.4056 26.306 30.9858 26.306H20.7266C17.9215 26.306 15.5969 28.7078 15.5969 31.5223V41.3014C15.5969 44.0869 18.0176 45.7199 20.7266 46.5175C23.9733 47.4683 27.0952 47.6414 30.9857 46.5175C33.5699 45.768 36.1155 44.26 36.1155 41.3014V39.2509H25.8659V36.0851H41.2546C44.2422 36.0851 45.3468 34.0006 46.3842 30.8787C47.4602 27.6605 47.4122 24.5674 46.3843 20.4465Z" fill="#FFCA1D"/>
<path id="Vector_3" d="M18.3022 8.74944C17.2789 8.74944 16.4492 7.91047 16.4492 6.87795C16.4584 5.83616 17.2789 4.99719 18.3022 4.99719C19.3164 4.99719 20.1554 5.84534 20.1554 6.87795C20.1553 7.91047 19.3256 8.74944 18.3022 8.74944Z" fill="white"/>
<path id="Vector_4" d="M30.7527 44.9293C29.7294 44.9293 28.8996 44.0903 28.8996 43.0578C28.9089 42.016 29.7293 41.1771 30.7527 41.1771C31.7669 41.1771 32.6059 42.0252 32.6059 43.0578C32.6059 44.0903 31.7762 44.9293 30.7527 44.9293Z" fill="white"/>
</g>
</g>
</g>
</svg>
