<svg width="50" height="50" viewBox="0 0 50 50" fill="none" xmlns="http://www.w3.org/2000/svg">
<g id="Frame">
<g id="layer1">
<path id="Vector" d="M7.5 0V50H42.5V47.5H40H10V2.5H30V10V12.5H40V30H42.5V12.5V10L32.5 0H30H7.5ZM32.5 3.38379L39.1162 10H32.5V3.38379ZM16.25 32.5C14.1789 32.5 12.5 34.1789 12.5 36.25C12.5 38.3211 14.1789 40 16.25 40H18.75C19.4404 40 20 40.5596 20 41.25C20 41.9404 19.4404 42.5 18.75 42.5H12.5V45H18.75C20.8211 45 22.5 43.3211 22.5 41.25C22.5 39.1789 20.8211 37.5 18.75 37.5H16.25C15.5596 37.5 15 36.9404 15 36.25C15 35.5596 15.5596 35 16.25 35H22.5V32.5H16.25ZM30 32.5L29.541 32.5195L29.082 32.583L28.6328 32.6904L28.1934 32.8369L27.7686 33.0225L27.3682 33.2471L26.9873 33.5107L26.6309 33.8037L26.3037 34.1309L26.0107 34.4873L25.752 34.8682L25.5225 35.2686L25.3369 35.6934L25.1904 36.1279L25.0879 36.582L25.0195 37.041L25 37.5V40L25.0195 40.459L25.0879 40.918L25.1904 41.3672L25.3369 41.8066L25.5225 42.2266L25.752 42.6318L26.0107 43.0127L26.3037 43.3691L26.6309 43.6963L26.9873 43.9893L27.3682 44.248L27.7686 44.4775L28.1934 44.6631L28.6328 44.8096L29.082 44.9121L29.541 44.9805L30 45L30.459 44.9805L30.918 44.9121L31.3672 44.8096L31.8066 44.6631L32.2314 44.4775L32.5342 44.3018L32.8662 44.6338C33.1006 44.8682 33.4185 44.9999 33.75 45H35V42.5H34.3213L34.4775 42.2266L34.6631 41.8066L34.8096 41.3672L34.9121 40.918L34.9805 40.459L35 40V37.5L34.9805 37.041L34.9121 36.582L34.8096 36.1279L34.6631 35.6934L34.4775 35.2686L34.248 34.8682L33.9893 34.4873L33.6963 34.1309L33.3691 33.8037L33.0127 33.5107L32.6318 33.2471L32.2314 33.0225L31.8066 32.8369L31.3672 32.6904L30.918 32.583L30.459 32.5195L30 32.5ZM37.5 32.5V45H47.5V42.5H40V32.5H37.5ZM30 35L30.3271 35.0195L30.6494 35.083L30.957 35.1904L31.25 35.3369L31.5234 35.5176L31.7676 35.7324L31.9824 35.9766L32.1631 36.25L32.3096 36.543L32.417 36.8506L32.4805 37.1729L32.5 37.5V40L32.4805 40.3271L32.417 40.6445L30.8838 39.1162L29.1162 40.8838L30.6445 42.4121L30.3271 42.4805L30 42.5L29.6729 42.4805L29.3506 42.4121L29.043 42.3096L28.75 42.1631L28.4766 41.9824L28.2324 41.7676L28.0176 41.5186L27.8369 41.25L27.6904 40.957L27.583 40.6445L27.5195 40.3271L27.5 40V37.5L27.5195 37.1729L27.583 36.8506L27.6904 36.543L27.8369 36.25L28.0176 35.9766L28.2324 35.7324L28.4766 35.5176L28.75 35.3369L29.043 35.1904L29.3506 35.083L29.6729 35.0195L30 35Z" fill="#222222"/>
</g>
</g>
</svg>
